<?xml version="1.0" standalone="no"?>
<!DOCTYPE svg PUBLIC "-//W3C//DTD SVG 20010904//EN"
 "http://www.w3.org/TR/2001/REC-SVG-20010904/DTD/svg10.dtd">
<svg version="1.0" xmlns="http://www.w3.org/2000/svg"
 width="659.000000pt" height="379.000000pt" viewBox="0 0 659.000000 379.000000"
 preserveAspectRatio="xMidYMid meet">

<g transform="translate(0.000000,379.000000) scale(0.100000,-0.100000)"
fill="#000000" stroke="none">
<path d="M2920 1923 c-129 -297 -338 -773 -423 -961 -27 -62 -48 -115 -45
-117 3 -3 35 27 73 67 37 40 158 165 269 278 337 344 651 672 654 685 3 13
-11 19 -118 49 -30 8 -80 22 -110 30 -30 9 -93 27 -141 41 -47 14 -92 25 -101
25 -10 0 -30 -33 -58 -97z"/>
</g>
</svg>
